<svg id="Layer_1" data-name="Layer 1" xmlns="http://www.w3.org/2000/svg" viewBox="0 0 12 12"><defs><style>.cls-1{fill:none;stroke:#000;stroke-linecap:round;stroke-linejoin:round;stroke-width:1.33px;}</style></defs><title>Annotation-tool_icons_200115_ason</title><rect class="cls-1" x="0.69" y="1.59" width="10.63" height="8.83"/><line class="cls-1" x1="9.23" y1="3.51" x2="11.1" y2="3.51"/><line class="cls-1" x1="9.06" y1="6" x2="10.93" y2="6"/><line class="cls-1" x1="9.39" y1="8.49" x2="11.26" y2="8.49"/><line class="cls-1" x1="1.15" y1="3.51" x2="3.02" y2="3.51"/><line class="cls-1" x1="0.98" y1="6" x2="2.85" y2="6"/><line class="cls-1" x1="1.31" y1="8.49" x2="3.18" y2="8.49"/><path d="M2.57,1.31v9.38H9.43V1.31Zm5,5.27L5.08,8a.65.65,0,0,1-.66,0,.67.67,0,0,1-.34-.58V4.56A.67.67,0,0,1,4.42,4a.65.65,0,0,1,.66,0l2.5,1.44a.66.66,0,0,1,0,1.16Z"/></svg>