<svg
  xmlns="http://www.w3.org/2000/svg"
  viewBox="0 0 12 12"
  stroke="currentColor"
><title>Annotation-tool_icons_200115_ason</title><path d="M5.73,4.29a1,1,0,0,1,1.83.54,1,1,0,0,1,1.12-.38,1,1,0,0,1,.72.92,3.17,3.17,0,0,1,.36-.28A1,1,0,0,1,11.23,6c0,1,0,2.06-.06,3.08a3.21,3.21,0,0,1-2.74,2.89A10,10,0,0,1,7.09,12a11.75,11.75,0,0,1-1.19,0,3.67,3.67,0,0,1-2.45-1.4L1,7.64A1,1,0,0,1,1.48,6a1,1,0,0,1,1,.27l.92.9.09.08a.13.13,0,0,0,.22-.1.57.57,0,0,0,0-.13V1.07a1,1,0,1,1,2,0c0,1,0,2,0,3Z"/></svg>
