<svg
  xmlns="http://www.w3.org/2000/svg"
  viewBox="0 0 12 12"
  stroke="currentColor"
>
<title>Annotation-tool_icons_ol_200115_ason</title><path d="M5.89,9h.26a1.1,1.1,0,0,0,.52-.16A.8.8,0,0,0,7,8.33H7a.71.71,0,0,1-.52.18.78.78,0,0,1-.81-.81.94.94,0,0,1,1-.93c.67,0,1,.51,1,1.12a1.55,1.55,0,0,1-.45,1.19,1.48,1.48,0,0,1-1,.36H5.89Zm.37-1.3a.37.37,0,0,0,.37.41A.37.37,0,0,0,7,7.91a.31.31,0,0,0,0-.15c0-.28-.1-.55-.38-.55S6.25,7.39,6.26,7.67Z"/><path d="M9.84,8.1c0,.8-.33,1.35-1,1.35s-1-.6-1-1.34.32-1.34,1-1.34S9.84,7.39,9.84,8.1Zm-1.35,0c0,.6.14.88.38.88s.36-.29.36-.88-.12-.88-.37-.88S8.49,7.51,8.49,8.11Z"/><path d="M11.29,7.25a.6.6,0,0,1-.61.6.58.58,0,0,1-.6-.58.59.59,0,0,1,.61-.6A.58.58,0,0,1,11.29,7.25Zm-.89,0a.29.29,0,1,0,.57,0A.29.29,0,0,0,10.69,7,.29.29,0,0,0,10.4,7.26Z"/><path d="M10.88,6H9a.66.66,0,0,1-.67-.66A.67.67,0,0,1,9,4.66h1.22V3.44a.66.66,0,0,1,.67-.66.65.65,0,0,1,.66.66V5.33A.65.65,0,0,1,10.88,6Z"/><path d="M4.67,11.06l-.14,0A5.1,5.1,0,1,1,10.6,5.22a.67.67,0,1,1-1.32.21A3.77,3.77,0,0,0,1.79,6a3.79,3.79,0,0,0,3,3.7.67.67,0,0,1-.13,1.32Z"/></svg>
