<svg
  xmlns="http://www.w3.org/2000/svg"
  viewBox="0 0 12 12"
  stroke="currentColor"
>
<title>Annotation-tool_icons_ol_200115_ason</title><polygon points="6 11.32 7.15 9.36 8.29 7.4 6 7.4 3.71 7.4 4.85 9.36 6 11.32"/><path d="M6,12H6a.66.66,0,0,1-.58-.33L3.13,7.73a.67.67,0,0,1,0-.67.68.68,0,0,1,.58-.33H8.29a.68.68,0,0,1,.58.33.67.67,0,0,1,0,.67L6.58,11.66A.66.66,0,0,1,6,12ZM4.87,8.06,6,10,7.13,8.06Z"/><polygon points="6 0.67 7.15 2.63 8.29 4.59 6 4.59 3.71 4.59 4.85 2.63 6 0.67"/><path d="M8.29,5.26H3.71a.68.68,0,0,1-.58-.33.67.67,0,0,1,0-.67L5.42.33a.7.7,0,0,1,1.16,0L8.87,4.26a.67.67,0,0,1,0,.67A.68.68,0,0,1,8.29,5.26ZM4.87,3.93H7.13L6,2Z"/></svg>
